<mxfile host="65bd71144e">
    <diagram id="EoPQu0NCCKKldDxp2etv" name="Page-1">
        <mxGraphModel dx="920" dy="1077" grid="1" gridSize="10" guides="1" tooltips="1" connect="1" arrows="1" fold="1" page="1" pageScale="1" pageWidth="850" pageHeight="1100" math="0" shadow="0">
            <root>
                <mxCell id="0"/>
                <mxCell id="1" parent="0"/>
                <mxCell id="2" value="&lt;b style=&quot;border-color: var(--border-color); font-size: 20px;&quot;&gt;&lt;font style=&quot;border-color: var(--border-color); font-size: 20px;&quot; face=&quot;Verdana&quot;&gt;Guest Page Table&lt;/font&gt;&lt;/b&gt;" style="rounded=1;whiteSpace=wrap;html=1;labelBackgroundColor=none;fillColor=#d5e8d4;fillStyle=auto;strokeColor=#82b366;fontSize=20;" vertex="1" parent="1">
                    <mxGeometry x="320" y="235" width="140" height="100" as="geometry"/>
                </mxCell>
                <mxCell id="7" value="&lt;span style=&quot;font-family: Verdana; font-size: 21px; font-weight: 700;&quot;&gt;Physical memory&lt;br&gt;address space&lt;br&gt;&lt;/span&gt;" style="text;html=1;align=center;verticalAlign=middle;resizable=0;points=[];autosize=1;strokeColor=none;fillColor=none;" vertex="1" parent="1">
                    <mxGeometry x="530" y="30" width="220" height="60" as="geometry"/>
                </mxCell>
                <mxCell id="18" value="" style="group" vertex="1" connectable="0" parent="1">
                    <mxGeometry x="20" y="20" width="220" height="460" as="geometry"/>
                </mxCell>
                <mxCell id="11" value="" style="whiteSpace=wrap;strokeWidth=2;fillColor=#fff2cc;strokeColor=#d6b656;fontFamily=Verdana;fontStyle=1;fontSize=21;verticalAlign=top;" vertex="1" parent="18">
                    <mxGeometry y="70" width="220" height="390" as="geometry"/>
                </mxCell>
                <mxCell id="12" value="RAM Region #1" style="whiteSpace=wrap;strokeWidth=2;fillColor=#ffe6cc;strokeColor=#d79b00;fontFamily=Verdana;fontStyle=1;fontSize=19;" vertex="1" parent="18">
                    <mxGeometry y="130" width="220" height="50" as="geometry"/>
                </mxCell>
                <mxCell id="13" value="RAM Region #2" style="whiteSpace=wrap;strokeWidth=2;fillColor=#ffe6cc;strokeColor=#d79b00;fontFamily=Verdana;fontStyle=1;fontSize=19;" vertex="1" parent="18">
                    <mxGeometry y="200" width="220" height="130" as="geometry"/>
                </mxCell>
                <mxCell id="14" value="MMIO Region&#10;(not mapped)" style="whiteSpace=wrap;strokeWidth=2;fillColor=#FFEEDE;strokeColor=#d79b00;fontFamily=Verdana;fontStyle=1;fontSize=19;dashed=1;dashPattern=1 1;" vertex="1" parent="18">
                    <mxGeometry y="370" width="220" height="50" as="geometry"/>
                </mxCell>
                <mxCell id="16" value="&lt;span style=&quot;font-family: Verdana; font-size: 21px; font-weight: 700;&quot;&gt;Guest memory&lt;br&gt;address space&lt;br&gt;&lt;/span&gt;" style="text;html=1;align=center;verticalAlign=middle;resizable=0;points=[];autosize=1;strokeColor=none;fillColor=none;" vertex="1" parent="18">
                    <mxGeometry x="10" width="200" height="60" as="geometry"/>
                </mxCell>
                <mxCell id="19" value="" style="whiteSpace=wrap;strokeWidth=2;fillColor=#fff2cc;strokeColor=#d6b656;fontFamily=Verdana;fontStyle=1;fontSize=21;verticalAlign=top;" vertex="1" parent="1">
                    <mxGeometry x="530" y="100" width="220" height="390" as="geometry"/>
                </mxCell>
                <mxCell id="23" value="" style="edgeStyle=orthogonalEdgeStyle;rounded=0;orthogonalLoop=1;jettySize=auto;html=1;strokeWidth=4;endArrow=block;endFill=1;curved=1;" edge="1" parent="1">
                    <mxGeometry relative="1" as="geometry">
                        <mxPoint x="279.9999999999998" y="180" as="sourcePoint"/>
                        <mxPoint x="330" y="230" as="targetPoint"/>
                    </mxGeometry>
                </mxCell>
                <mxCell id="24" value="&lt;font color=&quot;#ff3333&quot;&gt;Guest&lt;/font&gt;-physical address" style="text;html=1;strokeColor=none;fillColor=none;align=center;verticalAlign=middle;whiteSpace=wrap;rounded=0;strokeWidth=2;fontStyle=1;fontSize=17;fontFamily=Verdana;" vertex="1" parent="1">
                    <mxGeometry x="290" y="140" width="160" height="30" as="geometry"/>
                </mxCell>
                <mxCell id="25" value="" style="edgeStyle=orthogonalEdgeStyle;rounded=0;orthogonalLoop=1;jettySize=auto;html=1;strokeWidth=4;endArrow=block;endFill=1;curved=1;" edge="1" parent="1">
                    <mxGeometry relative="1" as="geometry">
                        <mxPoint x="449.9999999999998" y="350" as="sourcePoint"/>
                        <mxPoint x="500" y="400" as="targetPoint"/>
                        <Array as="points">
                            <mxPoint x="450" y="400"/>
                        </Array>
                    </mxGeometry>
                </mxCell>
                <mxCell id="27" value="&lt;font color=&quot;#ff3333&quot;&gt;host&lt;/font&gt;-physical address" style="text;html=1;strokeColor=none;fillColor=none;align=center;verticalAlign=middle;whiteSpace=wrap;rounded=0;strokeWidth=2;fontStyle=1;fontSize=17;fontFamily=Verdana;" vertex="1" parent="1">
                    <mxGeometry x="320" y="400" width="160" height="30" as="geometry"/>
                </mxCell>
            </root>
        </mxGraphModel>
    </diagram>
</mxfile>